# xmcd
# 
# Track frame offsets:
#       182
#       22765
#       41882
#       58312
#       72100
#       91372
#       104650
#       115375
#       132167
#       143930
#       159867
#       174595
# 
# Disc length: 3562 seconds
# 
# Revision: 2
# Processed by: cddbd v1.4PL0 Copyright (c) Steve Scherf et al.
# Submitted via: rip-utils v0.2 ru experienced?
# 
DISCID=a70de80c
DTITLE=Nirvana - Nevermind
DYEAR=1900
DGENRE=
TTITLE0=Smells Like Teen Spirit
TTITLE1=In Bloom
TTITLE2=Come as You Are
TTITLE3=Breed
TTITLE4=Lithium
TTITLE5=Polly
TTITLE6=Territorial Pissings
TTITLE7=Drain You
TTITLE8=Lounge Act
TTITLE9=Stay Away
TTITLE10=On a Plain
TTITLE11=Something in the Way
EXTD=
EXTT0=
EXTT1=
EXTT2=
EXTT3=
EXTT4=
EXTT5=
EXTT6=
EXTT7=
EXTT8=
EXTT9=
EXTT10=
EXTT11=
PLAYORDER=
